<svg width="50" height="50" viewBox="0 0 50 50" fill="none" xmlns="http://www.w3.org/2000/svg">
<path d="M40.5173 50H33.6207C32.6685 50 31.8966 49.2281 31.8966 48.2759V6.89658C31.8966 5.94433 32.6685 5.17245 33.6207 5.17245H40.5173C41.4695 5.17245 42.2414 5.94433 42.2414 6.89658V48.2759C42.2414 49.2281 41.4695 50 40.5173 50Z" fill="#B9785F"/>
<path d="M33.6207 5.17245C32.6685 5.17245 31.8966 5.94433 31.8966 6.89658V48.2759C31.8966 49.228 32.6685 50 33.6207 50V5.17245Z" fill="#AA6955"/>
<path d="M37.4779 34.1181L39.5644 27.8588C39.6233 27.6818 39.6233 27.4906 39.5644 27.3136L37.4779 21.0543C37.3469 20.6613 36.7911 20.6613 36.6602 21.0543L34.5737 27.3136C34.5147 27.4905 34.5147 27.6819 34.5737 27.8588L36.6602 34.1181C36.791 34.5111 37.3469 34.5111 37.4779 34.1181Z" fill="#FFD782"/>
<path d="M18.1034 50H9.48271C8.53047 50 7.75859 49.2281 7.75859 48.2759V10.3448C7.75859 9.39257 8.53047 8.6207 9.48271 8.6207H18.1034C19.0557 8.6207 19.8275 9.39257 19.8275 10.3448V48.2759C19.8275 49.2281 19.0557 50 18.1034 50Z" fill="#9B8273"/>
<path d="M7.75859 10.3448V48.2759C7.75859 49.228 8.53056 50 9.48271 50V8.6207C8.53056 8.6207 7.75859 9.39257 7.75859 10.3448Z" fill="#876E64"/>
<path d="M14.2021 35.8423L16.2885 29.583C16.3475 29.4061 16.3475 29.2147 16.2885 29.0378L14.2021 22.7785C14.071 22.3856 13.5152 22.3856 13.3843 22.7785L11.2979 29.0378C11.2389 29.2148 11.2389 29.4062 11.2979 29.583L13.3843 35.8423C13.5152 36.2353 14.071 36.2353 14.2021 35.8423Z" fill="#FFD782"/>
<path d="M30.1725 50H21.5518C20.5995 50 19.8276 49.2281 19.8276 48.2759V1.72412C19.8275 0.771875 20.5994 0 21.5518 0H30.1725C31.1247 0 31.8966 0.771875 31.8966 1.72412V48.2759C31.8966 49.2281 31.1247 50 30.1725 50Z" fill="#707487"/>
<path d="M21.5518 50V0C20.5995 0 19.8276 0.771875 19.8276 1.72412V48.2759C19.8275 49.2281 20.5994 50 21.5518 50Z" fill="#5B5D6E"/>
<path d="M26.271 31.5319L28.3574 25.2726C28.4164 25.0957 28.4164 24.9045 28.3574 24.7274L26.271 18.4682C26.1399 18.0752 25.5842 18.0752 25.4532 18.4682L23.3668 24.7274C23.3078 24.9044 23.3078 25.0956 23.3668 25.2726L25.4532 31.5319C25.5842 31.9249 26.1399 31.9249 26.271 31.5319Z" fill="#FFD782"/>
<path d="M31.8965 3.44824H19.8275V5.17236H31.8965V3.44824Z" fill="#FFD782"/>
<path d="M31.8965 6.89658H19.8275V8.6207H31.8965V6.89658Z" fill="#FFD782"/>
<path d="M31.8965 41.3793H19.8275V43.1034H31.8965V41.3793Z" fill="#FFD782"/>
<path d="M31.8965 44.8275H19.8275V46.5517H31.8965V44.8275Z" fill="#FFD782"/>
<path d="M19.8275 43.1034H7.75859V44.8275H19.8275V43.1034Z" fill="#FFD782"/>
<path d="M42.2414 43.1034H31.8966V44.8275H42.2414V43.1034Z" fill="#FFD782"/>
<path d="M42.2414 10.3448H31.8966V12.0689H42.2414V10.3448Z" fill="#FFD782"/>
<path d="M19.8275 13.7931H7.75859V15.5172H19.8275V13.7931Z" fill="#FFD782"/>
<path d="M21.5517 3.44824H19.8275V5.17236H21.5517V3.44824Z" fill="#FFC36E"/>
<path d="M21.5517 6.89658H19.8275V8.6207H21.5517V6.89658Z" fill="#FFC36E"/>
<path d="M9.48271 13.7931H7.75859V15.5172H9.48271V13.7931Z" fill="#FFC36E"/>
<path d="M9.48271 43.1034H7.75859V44.8275H9.48271V43.1034Z" fill="#FFC36E"/>
<path d="M33.6207 10.3448H31.8966V12.0689H33.6207V10.3448Z" fill="#FFC36E"/>
<path d="M33.6207 43.1034H31.8966V44.8275H33.6207V43.1034Z" fill="#FFC36E"/>
<path d="M21.5517 41.3793H19.8275V43.1034H21.5517V41.3793Z" fill="#FFC36E"/>
<path d="M21.5517 44.8275H19.8275V46.5517H21.5517V44.8275Z" fill="#FFC36E"/>
</svg>
