<svg width="50" height="50" viewBox="0 0 50 50" fill="none" xmlns="http://www.w3.org/2000/svg">
<path d="M40.5173 50H9.48271C8.53047 50 7.75859 49.2281 7.75859 48.2759V6.89658L14.6552 0H40.5173C41.4695 0 42.2414 0.771875 42.2414 1.72412V48.2759C42.2414 49.2281 41.4695 50 40.5173 50Z" fill="#EFF2FA"/>
<path d="M14.6552 0L7.75859 6.89658H12.9311C13.8833 6.89658 14.6552 6.12471 14.6552 5.17246V0Z" fill="#C7CFE2"/>
<path d="M33.6207 45.6896C31.7193 45.6896 30.1725 44.1431 30.1725 42.2414C30.1725 40.3397 31.7193 38.7932 33.6207 38.7932C35.5221 38.7932 37.0689 40.3397 37.0689 42.2414C37.0689 44.1431 35.5221 45.6896 33.6207 45.6896ZM33.6207 40.5173C32.6698 40.5173 31.8966 41.291 31.8966 42.2414C31.8966 43.1918 32.6698 43.9655 33.6207 43.9655C34.5716 43.9655 35.3448 43.1918 35.3448 42.2414C35.3448 41.291 34.5716 40.5173 33.6207 40.5173Z" fill="#5B5D6E"/>
<path d="M36.2069 13.7931H13.7931C13.317 13.7931 12.931 13.4075 12.931 12.931C12.931 12.4545 13.317 12.0688 13.7931 12.0688H36.2068C36.6829 12.0688 37.0689 12.4544 37.0689 12.931C37.0689 13.4075 36.683 13.7931 36.2069 13.7931Z" fill="#959CB3"/>
<path d="M36.2069 10.3448H13.7931C13.317 10.3448 12.931 9.95928 12.931 9.48271C12.931 9.00625 13.317 8.62061 13.7931 8.62061H36.2068C36.6829 8.62061 37.0689 9.00615 37.0689 9.48271C37.0689 9.95928 36.683 10.3448 36.2069 10.3448Z" fill="#959CB3"/>
<path d="M36.2069 17.2414H13.7931C13.317 17.2414 12.931 16.8559 12.931 16.3793C12.931 15.9027 13.317 15.5172 13.7931 15.5172H36.2068C36.6829 15.5172 37.0689 15.9027 37.0689 16.3793C37.0689 16.8559 36.683 17.2414 36.2069 17.2414Z" fill="#959CB3"/>
<path d="M36.2069 20.6896H13.7931C13.317 20.6896 12.931 20.3041 12.931 19.8275C12.931 19.351 13.317 18.9654 13.7931 18.9654H36.2068C36.6829 18.9654 37.0689 19.351 37.0689 19.8275C37.0689 20.3041 36.683 20.6896 36.2069 20.6896Z" fill="#959CB3"/>
<path d="M36.2069 24.1379H13.7931C13.317 24.1379 12.931 23.7523 12.931 23.2758C12.931 22.7993 13.317 22.4137 13.7931 22.4137H36.2068C36.6829 22.4137 37.0689 22.7992 37.0689 23.2758C37.0689 23.7523 36.683 24.1379 36.2069 24.1379Z" fill="#959CB3"/>
<path d="M36.2069 27.5862H13.7931C13.317 27.5862 12.931 27.2007 12.931 26.7241C12.931 26.2476 13.317 25.862 13.7931 25.862H36.2068C36.6829 25.862 37.0689 26.2475 37.0689 26.7241C37.0689 27.2007 36.683 27.5862 36.2069 27.5862Z" fill="#959CB3"/>
<path d="M36.2069 31.0345H13.7931C13.317 31.0345 12.931 30.6489 12.931 30.1724C12.931 29.6958 13.317 29.3102 13.7931 29.3102H36.2068C36.6829 29.3102 37.0689 29.6958 37.0689 30.1724C37.0689 30.6489 36.683 31.0345 36.2069 31.0345Z" fill="#959CB3"/>
<path d="M36.2069 34.4827H13.7931C13.317 34.4827 12.931 34.0972 12.931 33.6206C12.931 33.1441 13.317 32.7585 13.7931 32.7585H36.2068C36.6829 32.7585 37.0689 33.144 37.0689 33.6206C37.0689 34.0972 36.683 34.4827 36.2069 34.4827Z" fill="#959CB3"/>
<path d="M27.5862 41.3793H18.9655C18.4895 41.3793 18.1034 40.9938 18.1034 40.5172C18.1034 40.0407 18.4895 39.6551 18.9655 39.6551H27.5862C28.0623 39.6551 28.4483 40.0406 28.4483 40.5172C28.4482 40.9938 28.0623 41.3793 27.5862 41.3793Z" fill="#707487"/>
<path d="M27.5862 44.8276H18.9655C18.4895 44.8276 18.1034 44.442 18.1034 43.9654C18.1034 43.489 18.4895 43.1033 18.9655 43.1033H27.5862C28.0623 43.1033 28.4483 43.4889 28.4483 43.9654C28.4482 44.442 28.0623 44.8276 27.5862 44.8276Z" fill="#707487"/>
</svg>
