<svg width="50" height="50" viewBox="0 0 50 50" fill="none" xmlns="http://www.w3.org/2000/svg">
<path d="M28.3438 7.86318L26.4105 5.92988C25.9255 5.44482 25.2677 5.17245 24.5817 5.17245H17.8943V8.6207H30.1724C29.4865 8.6207 28.8287 8.34814 28.3438 7.86318Z" fill="#F5B464"/>
<path d="M22.3093 7.86318L20.376 5.92988C19.891 5.44482 19.2332 5.17245 18.5473 5.17245H11.8599V8.6207H24.1379C23.4521 8.6207 22.7941 8.34814 22.3093 7.86318Z" fill="#FFC36E"/>
<path d="M47.4138 8.6207H17.4506C16.7647 8.6207 16.1068 8.34814 15.6218 7.86327L13.6885 5.92997C13.2035 5.44492 12.5457 5.17245 11.8598 5.17245H2.58623C1.15791 5.17245 0 6.33027 0 7.75859V42.2413C0 43.6696 1.15791 44.8275 2.58623 44.8275H47.4138C48.8421 44.8275 50 43.6696 50 42.2413V11.2069C50 9.77851 48.8421 8.6207 47.4138 8.6207Z" fill="#FFD782"/>
<path d="M40.5173 22.4138C42.8978 22.4138 44.8276 20.484 44.8276 18.1034C44.8276 15.7229 42.8978 13.7931 40.5173 13.7931C38.1367 13.7931 36.2069 15.7229 36.2069 18.1034C36.2069 20.484 38.1367 22.4138 40.5173 22.4138Z" fill="#FF6E6E"/>
<path d="M40.5173 20.6896C41.9456 20.6896 43.1035 19.5317 43.1035 18.1034C43.1035 16.6751 41.9456 15.5172 40.5173 15.5172C39.089 15.5172 37.9311 16.6751 37.9311 18.1034C37.9311 19.5317 39.089 20.6896 40.5173 20.6896Z" fill="white"/>
<path d="M32.7586 15.5173H25.862C25.3859 15.5173 24.9999 15.1312 24.9999 14.6552C24.9999 14.1791 25.3859 13.7931 25.862 13.7931H32.7586C33.2347 13.7931 33.6207 14.1791 33.6207 14.6552C33.6207 15.1312 33.2347 15.5173 32.7586 15.5173Z" fill="white"/>
<path d="M32.7586 18.9655H20.6897C20.2136 18.9655 19.8275 18.5795 19.8275 18.1034C19.8275 17.6273 20.2136 17.2413 20.6897 17.2413H32.7586C33.2347 17.2413 33.6207 17.6273 33.6207 18.1034C33.6207 18.5795 33.2347 18.9655 32.7586 18.9655Z" fill="white"/>
<path d="M32.7586 22.4138H20.6897C20.2136 22.4138 19.8275 22.0277 19.8275 21.5517C19.8275 21.0756 20.2136 20.6895 20.6897 20.6895H32.7586C33.2347 20.6895 33.6207 21.0756 33.6207 21.5517C33.6207 22.0278 33.2347 22.4138 32.7586 22.4138Z" fill="white"/>
</svg>
