<svg width="50" height="50" viewBox="0 0 50 50" fill="none" xmlns="http://www.w3.org/2000/svg">
<g clip-path="url(#clip0_58_391)">
<path d="M26.724 10.3448H23.2758V31.8965H26.724V10.3448Z" fill="#FFD782"/>
<path d="M26.7241 31.0345H23.2759C22.7998 31.0345 22.4138 31.4205 22.4138 31.8966V43.9655H27.5861V31.8966C27.5861 31.4205 27.2003 31.0345 26.7241 31.0345Z" fill="#FFC36E"/>
<path d="M33.2729 44.8806L27.5861 43.1034H22.4138L16.7272 44.8805C16.0073 45.1054 15.5173 45.772 15.5173 46.5262H34.4827C34.4827 45.7721 33.9926 45.1055 33.2729 44.8806Z" fill="#FFD782"/>
<path d="M25 6.03457C26.4283 6.03457 27.5862 4.87667 27.5862 3.44834C27.5862 2.02 26.4283 0.862106 25 0.862106C23.5717 0.862106 22.4138 2.02 22.4138 3.44834C22.4138 4.87667 23.5717 6.03457 25 6.03457Z" fill="#FFD782"/>
<path d="M18.8881 31.54L10.3448 12.7449V9.48281C10.3448 9.00673 9.9588 8.6207 9.48272 8.6207C9.00665 8.6207 8.62061 9.00673 8.62061 9.48281V12.7449L0.0774486 31.54C-0.119524 31.9732 0.0719799 32.4842 0.505574 32.6811C0.936628 32.8777 1.44971 32.6871 1.64669 32.253L9.48262 15.0142L17.3187 32.253C17.4631 32.5708 17.7762 32.759 18.1037 32.7585C18.2232 32.7585 18.3444 32.7337 18.4599 32.681C18.8935 32.4842 19.0851 31.9731 18.8881 31.54Z" fill="#F5B464"/>
<path d="M49.9226 31.54L41.3793 12.7449V9.48281C41.3793 9.00673 40.9933 8.6207 40.5172 8.6207C40.0411 8.6207 39.6551 9.00673 39.6551 9.48281V12.7449L31.1119 31.54C30.915 31.9732 31.1065 32.4842 31.5401 32.6811C31.972 32.8777 32.4842 32.6871 32.6813 32.253L40.5172 15.0143L48.3532 32.2531C48.4977 32.5709 48.8108 32.7591 49.1383 32.7586C49.2578 32.7586 49.379 32.7338 49.4945 32.6811C49.9279 32.4842 50.1196 31.9731 49.9226 31.54Z" fill="#F5B464"/>
<path d="M34.4827 49.1379H15.5172C15.0411 49.1379 14.6551 48.7519 14.6551 48.2758V46.5517H35.3447V48.2758C35.3447 48.752 34.9589 49.1379 34.4827 49.1379Z" fill="#FFC36E"/>
<path d="M35.3447 47.4138H14.6552C14.1791 47.4138 13.7931 47.0277 13.7931 46.5517C13.7931 46.0756 14.1791 45.6895 14.6552 45.6895H35.3447C35.8208 45.6895 36.2068 46.0756 36.2068 46.5517C36.2068 47.0278 35.8209 47.4138 35.3447 47.4138Z" fill="#F5B464"/>
<path d="M26.7241 11.2069H23.2759C22.7998 11.2069 22.4138 10.8209 22.4138 10.3448C22.4138 9.86875 22.7998 9.48271 23.2759 9.48271H26.7241C27.2002 9.48271 27.5862 9.86875 27.5862 10.3448C27.5861 10.821 27.2003 11.2069 26.7241 11.2069Z" fill="#F5B464"/>
<path d="M9.48271 14.6552C10.4349 14.6552 11.2068 13.8833 11.2068 12.9311C11.2068 11.9789 10.4349 11.2069 9.48271 11.2069C8.53051 11.2069 7.75859 11.9789 7.75859 12.9311C7.75859 13.8833 8.53051 14.6552 9.48271 14.6552Z" fill="#FFD782"/>
<path d="M40.5172 14.6552C41.4694 14.6552 42.2413 13.8833 42.2413 12.9311C42.2413 11.9789 41.4694 11.2069 40.5172 11.2069C39.565 11.2069 38.7931 11.9789 38.7931 12.9311C38.7931 13.8833 39.565 14.6552 40.5172 14.6552Z" fill="#FFD782"/>
<path d="M18.1034 31.0345H0.862109C0.386035 31.0345 0 31.4205 0 31.8966C0 35.2804 4.16504 37.9311 9.48271 37.9311C14.8004 37.9311 18.9654 35.2804 18.9654 31.8966C18.9655 31.4205 18.5795 31.0345 18.1034 31.0345Z" fill="#FFD782"/>
<path d="M49.1378 31.0345H31.8965C31.4204 31.0345 31.0344 31.4205 31.0344 31.8966C31.0344 35.2804 35.1994 37.9311 40.5171 37.9311C45.8348 37.9311 49.9998 35.2804 49.9998 31.8966C49.9999 31.4205 49.6139 31.0345 49.1378 31.0345Z" fill="#FFD782"/>
<path d="M41.521 7.63857L26.7241 5.17245H23.2759L8.479 7.63857C8.06338 7.7079 7.75859 8.06757 7.75859 8.48886V8.6207C7.75859 9.09677 8.14463 9.48281 8.6207 9.48281H41.3793C41.8554 9.48281 42.2414 9.09677 42.2414 8.6207V8.48886C42.2413 8.06757 41.9366 7.7079 41.521 7.63857Z" fill="#FFC36E"/>
</g>
<defs>
<clipPath id="clip0_58_391">
<rect width="50" height="50" fill="white"/>
</clipPath>
</defs>
</svg>
