<svg width="50" height="50" viewBox="0 0 50 50" fill="none" xmlns="http://www.w3.org/2000/svg">
<g clip-path="url(#clip0_58_298)">
<path d="M0.800771 39.532C0.320595 40.0122 0.0192277 40.6527 0.000868356 41.3316C-0.0226668 42.2093 0.387489 43.0273 1.13065 43.5426C1.42411 43.746 1.76044 43.8843 2.1122 43.9463C2.97343 44.098 3.81347 43.8292 4.41142 43.2308L25.3999 22.2427L21.7451 18.5879L0.800771 39.532Z" fill="#B9785F"/>
<path d="M24.7909 22.8516L21.1361 19.1968C20.7997 18.8604 20.7997 18.3148 21.1361 17.9785L23.5727 15.542L28.4458 20.4151L26.0093 22.8516C25.6729 23.1879 25.1274 23.1879 24.7909 22.8516Z" fill="#AA6955"/>
<path d="M21.7453 16.1511C21.4089 15.8146 21.4089 15.2691 21.7453 14.9328L26.6184 10.0597C26.9549 9.72324 27.5003 9.72324 27.8367 10.0597C28.1731 10.3961 28.1731 10.9416 27.8367 11.2779L22.9636 16.1511C22.6271 16.4875 22.0816 16.4875 21.7453 16.1511Z" fill="#B9785F"/>
<path d="M27.8367 22.2424C27.5003 21.906 27.5003 21.3604 27.8367 21.0241L32.7098 16.151C33.0463 15.8145 33.5918 15.8145 33.9281 16.151C34.2645 16.4874 34.2645 17.0328 33.9281 17.3692L29.055 22.2424C28.7184 22.5789 28.173 22.5789 27.8367 22.2424Z" fill="#B9785F"/>
<path d="M22.9632 16.1514L27.8362 21.0244L32.7092 16.1514L27.8362 11.2784L22.9632 16.1514Z" fill="#FFD782"/>
<path d="M22.9633 16.1514L27.8363 21.0244L29.0545 19.8062L24.1815 14.9332L22.9633 16.1514Z" fill="#FFC36E"/>
<path d="M15.6539 12.4963C14.9812 11.8235 14.9812 10.7326 15.6539 10.0598L21.7453 3.96836C22.4181 3.2956 23.509 3.2956 24.1818 3.96836C24.8546 4.64111 24.8546 5.73203 24.1818 6.40488L18.0904 12.4963C17.4177 13.169 16.3268 13.169 15.6539 12.4963Z" fill="#B9785F"/>
<path d="M31.4915 28.3338C30.8187 27.661 30.8187 26.5701 31.4915 25.8973L37.5829 19.8059C38.2557 19.1331 39.3466 19.1331 40.0194 19.8059C40.6922 20.4786 40.6922 21.5695 40.0194 22.2424L33.928 28.3338C33.2552 29.0066 32.1643 29.0066 31.4915 28.3338Z" fill="#B9785F"/>
<path d="M26.6179 10.0595L23.5723 7.01387L18.6993 11.8869L21.7449 14.9325L26.6179 10.0595Z" fill="#AA6955"/>
<path d="M36.9739 20.4159L33.9283 17.3703L29.0553 22.2433L32.1009 25.2889L36.9739 20.4159Z" fill="#AA6955"/>
<path d="M18.6996 13.1054C18.3632 12.7689 18.3632 12.2234 18.6996 11.8871L23.5728 7.01396C23.9092 6.67754 24.4546 6.67754 24.791 7.01396C25.1274 7.35039 25.1274 7.8959 24.791 8.23222L19.9179 13.1054C19.5815 13.4418 19.036 13.4418 18.6996 13.1054Z" fill="#FFC36E"/>
<path d="M30.8823 25.2882C30.5459 24.9518 30.5459 24.4063 30.8823 24.0699L35.7555 19.1968C36.0919 18.8604 36.6374 18.8604 36.9737 19.1968C37.3102 19.5332 37.3102 20.0786 36.9737 20.415L32.1006 25.2882C31.7642 25.6245 31.2188 25.6245 30.8823 25.2882Z" fill="#FFC36E"/>
<path d="M47.4156 43.0904H28.4638V40.506C28.4638 40.0303 28.8495 39.6446 29.3252 39.6446H46.5542C47.03 39.6446 47.4156 40.0304 47.4156 40.506V43.0904Z" fill="#B9785F"/>
<path d="M49.1386 45.6748H26.7408V43.9519C26.7408 43.0003 27.5121 42.2289 28.4638 42.2289H47.4157C48.3673 42.2289 49.1387 43.0002 49.1387 43.9519V45.6748H49.1386Z" fill="#AA6955"/>
<path d="M49.1386 46.5362H26.7408C26.265 46.5362 25.8794 46.1505 25.8794 45.6748C25.8794 45.199 26.2651 44.8134 26.7408 44.8134H49.1386C49.6144 44.8134 50 45.1991 50 45.6748C50 46.1506 49.6143 46.5362 49.1386 46.5362Z" fill="#FFC36E"/>
</g>
<defs>
<clipPath id="clip0_58_298">
<rect width="50" height="50" fill="white"/>
</clipPath>
</defs>
</svg>
