<svg width="50" height="50" viewBox="0 0 50 50" fill="none" xmlns="http://www.w3.org/2000/svg">
<g clip-path="url(#clip0_58_153)">
<path d="M41.3793 50H8.6207C8.14463 50 7.75859 49.614 7.75859 49.1379V1.72412C7.75859 1.24805 8.14463 0.862015 8.6207 0.862015H41.3793C41.8554 0.862015 42.2414 1.24805 42.2414 1.72412V49.1379C42.2414 49.614 41.8554 50 41.3793 50Z" fill="#707487"/>
<path d="M12.0689 48.2759C11.5929 48.2759 11.2068 47.8898 11.2068 47.4138V3.44825C11.2068 2.97217 11.5929 2.58614 12.0689 2.58614C12.545 2.58614 12.9311 2.97217 12.9311 3.44825V47.4138C12.9311 47.8898 12.545 48.2759 12.0689 48.2759Z" fill="#5B5D6E"/>
<path d="M19.1574 9.89805L17.2414 8.6207L15.3254 9.89805C15.039 10.089 14.6553 9.88369 14.6553 9.53945V0.862109C14.6553 0.386035 15.0413 0 15.5174 0H18.9656C19.4417 0 19.8277 0.386035 19.8277 0.862109V9.53945C19.8275 9.88369 19.4438 10.089 19.1574 9.89805Z" fill="#FFD782"/>
<path d="M28.4482 33.6207H26.7241V15.5173C26.7241 15.0412 27.1102 14.6552 27.5862 14.6552C28.0623 14.6552 28.4483 15.0412 28.4483 15.5173V33.6207H28.4482Z" fill="#FFC36E"/>
<path d="M31.8966 36.2069H23.2759C22.7998 36.2069 22.4138 35.8209 22.4138 35.3448C22.4138 34.8688 22.7998 34.4827 23.2759 34.4827H31.8966C32.3727 34.4827 32.7587 34.8688 32.7587 35.3448C32.7586 35.8209 32.3727 36.2069 31.8966 36.2069Z" fill="#FFC36E"/>
<path d="M26.7241 32.7586L24.1379 34.4827H31.0345L28.4482 32.7586H26.7241Z" fill="#FFD782"/>
<path d="M35.3812 18.1017C35.8402 18.0825 36.2069 17.7054 36.2069 17.2414C36.2069 16.7653 35.8209 16.3793 35.3448 16.3793H19.8275C19.3515 16.3793 18.9654 16.7653 18.9654 17.2414C18.9654 17.7052 19.332 18.0824 19.7912 18.1017L16.6076 28.4483H18.4114L20.6925 21.0349L22.9734 28.4483H24.7772L21.5941 18.1035H33.5783L30.3951 28.4482H32.1989L34.48 21.0348L36.761 28.4482H38.5648L35.3812 18.1017Z" fill="#F5B464"/>
<path d="M16.9345 27.5862C16.5334 27.5862 16.2575 28.009 16.4333 28.3694C17.2026 29.9468 18.8191 31.0345 20.6925 31.0345C22.5658 31.0345 24.1822 29.9468 24.9516 28.3694C25.1273 28.009 24.8515 27.5862 24.4504 27.5862H16.9345Z" fill="#FFD782"/>
<path d="M30.7221 27.5862C30.321 27.5862 30.0451 28.009 30.2209 28.3694C30.9902 29.9469 32.6066 31.0345 34.48 31.0345C36.3532 31.0345 37.9697 29.9468 38.7391 28.3694C38.9148 28.009 38.639 27.5862 38.2379 27.5862H30.7221Z" fill="#FFD782"/>
</g>
<defs>
<clipPath id="clip0_58_153">
<rect width="50" height="50" fill="white"/>
</clipPath>
</defs>
</svg>
